<mxfile host="app.diagrams.net" modified="2023-11-02T05:25:33.863Z" agent="Mozilla/5.0 (Windows NT 10.0; Win64; x64) AppleWebKit/537.36 (KHTML, like Gecko) Chrome/118.0.0.0 Safari/537.36" version="22.0.8" etag="QbnUEMJmJA00M2JPwICP" type="github">
  <diagram name="Page-1" id="dlwZkgdaMasn2OybQfCr">
    <mxGraphModel>
      <root>
        <mxCell id="0" />
        <mxCell id="1" parent="0" />
        <mxCell id="2" value="Pengguna" style="shape=umlLifeline;perimeter=lifelinePerimeter;whiteSpace=wrap;container=1;dropTarget=0;collapsible=0;recursiveResize=0;outlineConnect=0;portConstraint=eastwest;newEdgeStyle={&quot;edgeStyle&quot;:&quot;elbowEdgeStyle&quot;,&quot;elbow&quot;:&quot;vertical&quot;,&quot;curved&quot;:0,&quot;rounded&quot;:0};size=65;" vertex="1" parent="1">
          <mxGeometry width="150" height="584" as="geometry" />
        </mxCell>
        <mxCell id="3" value="Sistem" style="shape=umlLifeline;perimeter=lifelinePerimeter;whiteSpace=wrap;container=1;dropTarget=0;collapsible=0;recursiveResize=0;outlineConnect=0;portConstraint=eastwest;newEdgeStyle={&quot;edgeStyle&quot;:&quot;elbowEdgeStyle&quot;,&quot;elbow&quot;:&quot;vertical&quot;,&quot;curved&quot;:0,&quot;rounded&quot;:0};size=65;" vertex="1" parent="1">
          <mxGeometry x="328" width="150" height="584" as="geometry" />
        </mxCell>
        <mxCell id="4" value="HalamanRegistrasi" style="shape=umlLifeline;perimeter=lifelinePerimeter;whiteSpace=wrap;container=1;dropTarget=0;collapsible=0;recursiveResize=0;outlineConnect=0;portConstraint=eastwest;newEdgeStyle={&quot;edgeStyle&quot;:&quot;elbowEdgeStyle&quot;,&quot;elbow&quot;:&quot;vertical&quot;,&quot;curved&quot;:0,&quot;rounded&quot;:0};size=65;" vertex="1" parent="1">
          <mxGeometry x="560" width="150" height="584" as="geometry" />
        </mxCell>
        <mxCell id="5" value="" style="points=[];perimeter=orthogonalPerimeter;outlineConnect=0;targetShapes=umlLifeline;portConstraint=eastwest;newEdgeStyle={&quot;edgeStyle&quot;:&quot;elbowEdgeStyle&quot;,&quot;elbow&quot;:&quot;vertical&quot;,&quot;curved&quot;:0,&quot;rounded&quot;:0}" vertex="1" parent="4">
          <mxGeometry x="70" y="107" width="10" height="62" as="geometry" />
        </mxCell>
        <mxCell id="6" value="Mengisi formulir pendaftaran akun" style="verticalAlign=bottom;endArrow=block;edgeStyle=elbowEdgeStyle;elbow=vertical;curved=0;rounded=0;" edge="1" parent="1" source="2" target="5">
          <mxGeometry relative="1" as="geometry">
            <Array as="points">
              <mxPoint x="365" y="107" />
            </Array>
          </mxGeometry>
        </mxCell>
        <mxCell id="7" value="Kirim data pendaftaran" style="verticalAlign=bottom;endArrow=block;edgeStyle=elbowEdgeStyle;elbow=vertical;curved=0;rounded=0;" edge="1" parent="1" source="5" target="3">
          <mxGeometry relative="1" as="geometry">
            <Array as="points">
              <mxPoint x="527" y="159" />
            </Array>
          </mxGeometry>
        </mxCell>
        <mxCell id="8" value="Verifikasi data pendaftaran" style="curved=1;" edge="1" parent="1" source="3" target="3">
          <mxGeometry relative="1" as="geometry">
            <Array as="points">
              <mxPoint x="458" y="211" />
              <mxPoint x="458" y="241" />
            </Array>
          </mxGeometry>
        </mxCell>
        <mxCell id="9" value="Konfirmasi verifikasi data" style="verticalAlign=bottom;endArrow=block;edgeStyle=elbowEdgeStyle;elbow=vertical;curved=0;rounded=0;dashed=1;dashPattern=2 3;" edge="1" parent="1" source="3" target="2">
          <mxGeometry relative="1" as="geometry">
            <Array as="points">
              <mxPoint x="247" y="293" />
            </Array>
          </mxGeometry>
        </mxCell>
        <mxCell id="10" value="Konfirmasi data pendaftaran benar" style="verticalAlign=bottom;endArrow=block;edgeStyle=elbowEdgeStyle;elbow=vertical;curved=0;rounded=0;" edge="1" parent="1" source="2" target="3">
          <mxGeometry relative="1" as="geometry">
            <Array as="points">
              <mxPoint x="247" y="345" />
            </Array>
          </mxGeometry>
        </mxCell>
        <mxCell id="11" value="Membuat akun pengguna baru" style="curved=1;" edge="1" parent="1" source="3" target="3">
          <mxGeometry relative="1" as="geometry">
            <Array as="points">
              <mxPoint x="458" y="397" />
              <mxPoint x="458" y="427" />
            </Array>
          </mxGeometry>
        </mxCell>
        <mxCell id="12" value="Konfirmasi pembuatan akun berhasil" style="verticalAlign=bottom;endArrow=block;edgeStyle=elbowEdgeStyle;elbow=vertical;curved=0;rounded=0;dashed=1;dashPattern=2 3;" edge="1" parent="1" source="3" target="2">
          <mxGeometry relative="1" as="geometry">
            <Array as="points">
              <mxPoint x="247" y="479" />
            </Array>
          </mxGeometry>
        </mxCell>
      </root>
    </mxGraphModel>
  </diagram>
</mxfile>
